# Blender v2.90.0 OBJ File: ''
# www.blender.org
mtllib crate.mtl
o Cube
v 1.000000 0.700000 -0.700000
v 1.000000 -0.700000 -0.700000
v 1.000000 0.700000 0.700000
v 1.000000 -0.700000 0.700000
v -1.000000 0.700000 -0.700000
v -1.000000 -0.700000 -0.700000
v -1.000000 0.700000 0.700000
v -1.000000 -0.700000 0.700000
v -0.700000 -0.700000 -1.000000
v -0.700000 -0.700000 1.000000
v 0.700000 0.700000 -1.000000
v 0.700000 -0.700000 -1.000000
v -0.700000 0.700000 1.000000
v 0.700000 0.700000 1.000000
v 0.700000 -0.700000 1.000000
v -0.700000 0.700000 -1.000000
v 0.700000 -1.000000 -0.700000
v -0.700000 -1.000000 -0.700000
v 0.700000 1.000000 -0.700000
v -0.700000 -1.000000 0.700000
v -0.700000 1.000000 0.700000
v 0.700000 1.000000 0.700000
v 0.700000 -1.000000 0.700000
v -0.700000 1.000000 -0.700000
v -0.841603 -0.700000 -0.700000
v -0.841603 -0.700000 0.700000
v 0.841603 0.700000 -0.700000
v 0.841603 -0.700000 -0.700000
v -0.841603 0.700000 0.700000
v 0.841603 0.700000 0.700000
v 0.841603 -0.700000 0.700000
v -0.841603 0.700000 -0.700000
v 0.700000 -0.700000 -0.841603
v -0.700000 -0.700000 -0.841603
v 0.700000 0.700000 -0.841603
v -0.700000 -0.700000 0.841603
v -0.700000 0.700000 0.841603
v 0.700000 0.700000 0.841603
v 0.700000 -0.700000 0.841603
v -0.700000 0.700000 -0.841603
v -0.700000 -0.841603 -0.700000
v -0.700000 -0.841603 0.700000
v 0.700000 -0.841603 -0.700000
v 0.700000 0.841603 0.700000
v -0.700000 0.841603 0.700000
v 0.700000 0.841603 -0.700000
v 0.700000 -0.841603 0.700000
v -0.700000 0.841603 -0.700000
v -1.000000 -0.893280 -0.893280
v -0.893280 -0.893280 -1.000000
v -0.893280 -1.000000 -0.893280
v -0.893280 -1.000000 0.893280
v -0.893280 -0.893280 1.000000
v -1.000000 -0.893280 0.893280
v 0.893280 -0.893280 -1.000000
v 1.000000 -0.893280 -0.893280
v 0.893280 -1.000000 -0.893280
v 1.000000 0.893280 0.893280
v 0.893280 1.000000 0.893280
v 0.893280 0.893280 1.000000
v -0.893280 0.893280 1.000000
v -0.893280 1.000000 0.893280
v -1.000000 0.893280 0.893280
v 0.893280 0.893280 -1.000000
v 0.893280 1.000000 -0.893280
v 1.000000 0.893280 -0.893280
v 0.893280 -0.893280 1.000000
v 0.893280 -1.000000 0.893280
v 1.000000 -0.893280 0.893280
v -1.000000 0.893280 -0.893280
v -0.893280 1.000000 -0.893280
v -0.893280 0.893280 -1.000000
vt 0.169118 0.700023
vt 0.169118 0.700023
vt 0.169118 0.700023
vt 0.169118 0.700023
vt 0.169118 0.700023
vt 0.169118 0.700023
vt 0.169118 0.700023
vt 0.169118 0.700023
vt 0.169118 0.700023
vt 0.169118 0.700023
vt 0.169118 0.700023
vt 0.169118 0.700023
vt 0.169118 0.700023
vt 0.169118 0.700023
vt 0.169118 0.700023
vt 0.169118 0.700023
vt 0.169118 0.700023
vt 0.169118 0.700023
vt 0.169118 0.700023
vt 0.169118 0.700023
vt 0.169118 0.700023
vt 0.169118 0.700023
vt 0.169118 0.700023
vt 0.169118 0.700023
vt 0.169118 0.700023
vt 0.169118 0.700023
vt 0.169118 0.700023
vt 0.169118 0.700023
vt 0.169118 0.700023
vt 0.169118 0.700023
vt 0.169118 0.700023
vt 0.169118 0.700023
vt 0.169118 0.700023
vt 0.169118 0.700023
vt 0.169118 0.700023
vt 0.169118 0.700023
vt 0.169118 0.700023
vt 0.169118 0.700023
vt 0.169118 0.700023
vt 0.169118 0.700023
vt 0.169118 0.700023
vt 0.169118 0.700023
vt 0.169118 0.700023
vt 0.169118 0.700023
vt 0.169118 0.700023
vt 0.169118 0.700023
vt 0.169118 0.700023
vt 0.169118 0.700023
vt 0.169118 0.700023
vt 0.169118 0.700023
vt 0.169118 0.700023
vt 0.169118 0.700023
vt 0.169118 0.700023
vt 0.169118 0.700023
vt 0.169118 0.700023
vt 0.169118 0.700023
vt 0.169118 0.700023
vt 0.169118 0.700023
vt 0.169118 0.700023
vt 0.537621 0.590476
vt 0.537621 0.590476
vt 0.537621 0.590476
vt 0.537621 0.590476
vt 0.537621 0.590476
vt 0.537621 0.590476
vt 0.537621 0.590476
vt 0.537621 0.590476
vt 0.537621 0.590476
vt 0.537621 0.590476
vt 0.537621 0.590476
vt 0.537621 0.590476
vt 0.537621 0.590476
vt 0.537621 0.590476
vt 0.537621 0.590476
vt 0.537621 0.590476
vt 0.537621 0.590476
vt 0.537621 0.590476
vt 0.537621 0.590476
vt 0.537621 0.590476
vt 0.537621 0.590476
vt 0.537621 0.590476
vt 0.537621 0.590476
vt 0.537621 0.590476
vt 0.169118 0.700023
vt 0.169118 0.700023
vt 0.169118 0.700023
vt 0.169118 0.700023
vt 0.169118 0.700023
vt 0.169118 0.700023
vt 0.169118 0.700023
vt 0.169118 0.700023
vt 0.169118 0.700023
vt 0.169118 0.700023
vt 0.169118 0.700023
vt 0.169118 0.700023
vt 0.169118 0.700023
vn 0.0000 1.0000 0.0000
vn 0.0000 0.0000 1.0000
vn 0.0000 -1.0000 0.0000
vn 1.0000 0.0000 0.0000
vn 0.0000 0.0000 -1.0000
vn -1.0000 0.0000 0.0000
vn -0.5774 -0.5774 -0.5774
vn -0.5774 -0.5774 0.5774
vn 0.5774 -0.5774 -0.5774
vn 0.5774 0.5774 0.5774
vn -0.5774 0.5774 0.5774
vn 0.5774 0.5774 -0.5774
vn 0.5774 -0.5774 0.5774
vn -0.5774 0.5774 -0.5774
vn -0.7071 -0.7071 0.0000
vn 0.0000 -0.7071 -0.7071
vn 0.7071 0.0000 -0.7071
vn -0.7071 0.0000 0.7071
vn 0.7071 0.0000 0.7071
vn -0.7071 0.0000 -0.7071
vn 0.0000 0.7071 0.7071
vn 0.7071 0.7071 0.0000
vn 0.0000 -0.7071 0.7071
vn -0.7071 0.7071 0.0000
vn 0.0000 0.7071 -0.7071
vn 0.7071 -0.7071 0.0000
usemtl Material
s off
f 12/1/1 9/2/1 34/3/1 33/4/1
f 2/5/2 1/6/2 27/7/2 28/8/2
f 19/9/2 24/10/2 48/11/2 46/12/2
f 16/13/3 11/14/3 35/15/3 40/16/3
f 6/17/1 8/18/1 26/19/1 25/20/1
f 24/10/4 21/21/4 45/22/4 48/11/4
f 17/23/3 18/24/3 51/25/3 57/26/3
f 23/27/3 17/23/3 57/26/3 68/28/3
f 15/29/2 10/30/2 53/31/2 67/32/2
f 13/33/2 14/34/2 60/35/2 61/36/2
f 9/2/5 12/1/5 55/37/5 50/38/5
f 21/21/1 24/10/1 71/39/1 62/40/1
f 24/10/1 19/9/1 65/41/1 71/39/1
f 14/34/2 15/29/2 67/32/2 60/35/2
f 10/30/2 13/33/2 61/36/2 53/31/2
f 1/6/4 2/5/4 56/42/4 66/43/4
f 20/44/3 23/27/3 68/28/3 52/45/3
f 22/46/1 21/21/1 62/40/1 59/47/1
f 6/17/6 5/48/6 70/49/6 49/50/6
f 19/9/1 22/46/1 59/47/1 65/41/1
f 12/1/5 11/14/5 64/51/5 55/37/5
f 8/18/6 6/17/6 49/50/6 54/52/6
f 16/13/5 9/2/5 50/38/5 72/53/5
f 4/54/4 3/55/4 58/56/4 69/57/4
f 3/55/4 1/6/4 66/43/4 58/56/4
f 7/58/6 8/18/6 54/52/6 63/59/6
f 5/48/6 7/58/6 63/59/6 70/49/6
f 11/14/5 16/13/5 72/53/5 64/51/5
f 2/5/4 4/54/4 69/57/4 56/42/4
f 46/60/1 48/61/1 45/62/1 44/63/1
f 39/64/2 38/65/2 37/66/2 36/67/2
f 26/68/6 29/69/6 32/70/6 25/71/6
f 41/72/3 43/73/3 47/74/3 42/75/3
f 28/76/4 27/77/4 30/78/4 31/79/4
f 34/80/5 40/81/5 35/82/5 33/83/5
f 17/23/6 23/27/6 47/84/6 43/85/6
f 8/18/5 7/58/5 29/86/5 26/19/5
f 11/14/6 12/1/6 33/4/6 35/15/6
f 20/44/4 18/24/4 41/87/4 42/88/4
f 3/55/5 4/54/5 31/89/5 30/90/5
f 13/33/4 10/30/4 36/91/4 37/92/4
f 18/24/2 17/23/2 43/85/2 41/87/2
f 5/48/2 6/17/2 25/20/2 32/93/2
f 15/29/6 14/34/6 38/94/6 39/95/6
f 21/21/5 22/46/5 44/96/5 45/22/5
f 1/6/3 3/55/3 30/90/3 27/7/3
f 9/2/4 16/13/4 40/16/4 34/3/4
f 22/46/6 19/9/6 46/12/6 44/96/6
f 7/58/3 5/48/3 32/93/3 29/86/3
f 14/34/3 13/33/3 37/92/3 38/94/3
f 23/27/5 20/44/5 42/88/5 47/84/5
f 4/54/1 2/5/1 28/8/1 31/89/1
f 10/30/1 15/29/1 39/95/1 36/91/1
f 49/50/7 50/38/7 51/25/7
f 52/45/8 53/31/8 54/52/8
f 55/37/9 56/42/9 57/26/9
f 58/56/10 59/47/10 60/35/10
f 61/36/11 62/40/11 63/59/11
f 64/51/12 65/41/12 66/43/12
f 67/32/13 68/28/13 69/57/13
f 70/49/14 71/39/14 72/53/14
f 51/25/15 52/45/15 54/52/15 49/50/15
f 57/26/16 51/25/16 50/38/16 55/37/16
f 66/43/17 56/42/17 55/37/17 64/51/17
f 53/31/18 61/36/18 63/59/18 54/52/18
f 60/35/19 67/32/19 69/57/19 58/56/19
f 72/53/20 50/38/20 49/50/20 70/49/20
f 59/47/21 62/40/21 61/36/21 60/35/21
f 65/41/22 59/47/22 58/56/22 66/43/22
f 52/45/23 68/28/23 67/32/23 53/31/23
f 62/40/24 71/39/24 70/49/24 63/59/24
f 71/39/25 65/41/25 64/51/25 72/53/25
f 68/28/26 57/26/26 56/42/26 69/57/26
f 18/24/3 20/44/3 52/45/3 51/25/3
